{"title":"Jessica Rayne - A Jerk For Old Times Sake - 1080p","uid":9005512,"size":564698324,"categoryP":"porn","categoryS":"movie_clips","magnet":"?xt=urn:btih:60f84e12c6b76da0c36f9f9ba23cd8f88610ee4d&amp;dn=Jessica+Rayne+-+A+Jerk+For+Old+Times+Sake+-+1080p&amp;tr=udp%3A%2F%2Ftracker.openbittorrent.com%3A80&amp;tr=udp%3A%2F%2Fopen.demonii.com%3A1337&amp;tr=udp%3A%2F%2Ftracker.coppersurfer.tk%3A6969&amp;tr=udp%3A%2F%2Fexodus.desync.com%3A6969","seeders":0,"leechers":1,"uploader":null,"files":4,"time":1381024537,"description":" &lt;a href=&quot;http://www.hostpornpics.net/pornmg/share.php?id=22B7_5250A690&quot; rel=&quot;nofollow&quot; target=&quot;_NEW&quot;&gt;http://www.hostpornpics.net/pornmg/share.php?id=22B7_5250A690&lt;/a&gt;\n\n\n\nJessica decides to hang out with one of her old boyfriends even though she has a new one. They go back to his room after a long day of hanging out and having fun. Once they are alone in his room he puts the moves on Jessica, but she isn't having any of it. Jessica is loyal to her new boyfriend and tells him that she cant do anything. The desperate guy begs but Jessica continues to brush him off. Then finally Jessica says, &quot;well, he didn't say anything about my hands....I guess a handjob isn't cheating&quot;. Jess jerks his cock off with mad skills and then fucks his rock hard dick with her massive tits. When he's finally ready to pop he unloads a massive wad of jizz on to Jessica's face. The blast of hot cum nails her right in the fucking eye and she lets out a loud scream of shock. Now she has to go home to her little boyfriend with a pink eye.\n\n\nFormat : Windows Media\nFile size : 527 MiB\nDuration : 8mn 57s\nOverall bit rate : 8 216 Kbps\nMaximum Overall bit rate : 8 128 Kbps\nEncoded date : UTC 1970-01-01 00:00:00.000\n\nVideo\nID : 1\nFormat : WMV2\nCodec ID : WMV2\nCodec ID/Info : Windows Media Video 8\nDescription of the codec : wmv2\nDuration : 8mn 57s\nBit rate : 7 753 Kbps\nWidth : 1 920 pixels\nHeight : 1 080 pixels\nDisplay aspect ratio : 16:9\nFrame rate : 29.970 fps\nBit depth : 8 bits\nBits/(Pixel*Frame) : 0.125\nStream size : 497 MiB (94%)\n\nAudio\nID : 2\nFormat : WMA\nFormat version : Version 2\nCodec ID : 161\nCodec ID/Info : Windows Media Audio\nDescription of the codec : Windows Media Audio V8\nDuration : 8mn 57s\nBit rate : 128 Kbps\nChannel(s) : 2 channels\nSampling rate : 44.1 KHz\nBit depth : 16 bits\nStream size : 8.20 MiB (2%)","torrent":{"xt":"urn:btih:60f84e12c6b76da0c36f9f9ba23cd8f88610ee4d","amp;dn":"Jessica+Rayne+-+A+Jerk+For+Old+Times+Sake+-+1080p","amp;tr":["udp%3A%2F%2Ftracker.openbittorrent.com%3A80","udp%3A%2F%2Fopen.demonii.com%3A1337","udp%3A%2F%2Ftracker.coppersurfer.tk%3A6969","udp%3A%2F%2Fexodus.desync.com%3A6969"],"infoHash":"60f84e12c6b76da0c36f9f9ba23cd8f88610ee4d","infoHashBuffer":{"type":"Buffer","data":[96,248,78,18,198,183,109,160,195,111,159,155,162,60,216,248,134,16,238,77]},"announce":[],"urlList":[]}}